<svg xmlns="http://www.w3.org/2000/svg" viewBox="0 13.850000381469727 649 36.05000305175781" data-asc="0.984" width="649" height="36.05000305175781"><defs/><g fill="#000000"><g transform="translate(0, 0)"><path d="M0 49.20L0 43.90L4.70 43.90L4.70 19.50L0 19.50L0 14.20L14.25 14.20Q21.25 14.20 24.95 17.75Q28.65 21.30 28.65 28.40L28.65 35Q28.65 42.10 24.95 45.65Q21.25 49.20 14.25 49.20L0 49.20M10.70 43.75L14.30 43.75Q18.55 43.75 20.60 41.55Q22.65 39.35 22.65 35.20L22.65 28.25Q22.65 24 20.60 21.83Q18.55 19.65 14.30 19.65L10.70 19.65L10.70 43.75ZM34.60 49.20L34.60 24.50L40.25 24.50L40.25 27.35L41.10 27.35Q41.65 25.80 42.95 25.10Q44.25 24.40 46.05 24.40L49.05 24.40L49.05 29.50L45.95 29.50Q43.45 29.50 41.90 30.83Q40.35 32.15 40.35 34.90L40.35 49.20L34.60 49.20ZM61.15 49.90Q58.55 49.90 56.45 48.98Q54.35 48.05 53.13 46.30Q51.90 44.55 51.90 42Q51.90 39.50 53.13 37.80Q54.35 36.10 56.50 35.23Q58.65 34.35 61.40 34.35L68.55 34.35L68.55 32.85Q68.55 30.90 67.35 29.68Q66.15 28.45 63.60 28.45Q61.10 28.45 59.83 29.63Q58.55 30.80 58.15 32.65L52.85 30.90Q53.45 28.95 54.78 27.35Q56.10 25.75 58.30 24.78Q60.50 23.80 63.70 23.80Q68.55 23.80 71.33 26.23Q74.10 28.65 74.10 33.25L74.10 42.95Q74.10 44.45 75.50 44.45L77.60 44.45L77.60 49.20L73.55 49.20Q71.75 49.20 70.60 48.30Q69.45 47.40 69.45 45.85L69.45 45.75L68.60 45.75Q68.30 46.45 67.55 47.45Q66.80 48.45 65.28 49.18Q63.75 49.90 61.15 49.90M62.10 45.20Q64.95 45.20 66.75 43.58Q68.55 41.95 68.55 39.20L68.55 38.70L61.75 38.70Q59.90 38.70 58.75 39.50Q57.60 40.30 57.60 41.85Q57.60 43.35 58.80 44.28Q60 45.20 62.10 45.20ZM84.90 49.20L84.90 29.25L78.30 29.25L78.30 24.50L84.90 24.50L84.90 19.50Q84.90 17.05 86.33 15.63Q87.75 14.20 90.10 14.20L96.50 14.20L96.50 18.95L92 18.95Q90.60 18.95 90.60 20.45L90.60 24.50L97.40 24.50L97.40 29.25L90.60 29.25L90.60 49.20L84.90 49.20ZM106.25 49.20Q103.85 49.20 102.43 47.78Q101.00 46.35 101.00 43.90L101.00 29.25L94.55 29.25L94.55 24.50L101.00 24.50L101.00 16.55L106.75 16.55L106.75 24.50L113.85 24.50L113.85 29.25L106.75 29.25L106.75 42.95Q106.75 44.45 108.15 44.45L113.10 44.45L113.10 49.20L106.25 49.20ZM129.20 49.20L138.80 14.20L149.25 14.20L158.85 49.20L152.65 49.20L150.55 41.20L137.50 41.20L135.40 49.20L129.20 49.20M138.90 35.70L149.15 35.70L144.45 17.95L143.60 17.95L138.90 35.70ZM173.70 49.90Q168.90 49.90 165.80 47.80Q162.70 45.70 162.05 41.65L167.35 40.30Q167.70 42.20 168.60 43.30Q169.50 44.40 170.83 44.85Q172.15 45.30 173.70 45.30Q176.05 45.30 177.23 44.45Q178.40 43.60 178.40 42.30Q178.40 40.95 177.28 40.30Q176.15 39.65 173.85 39.20L172.30 38.95Q169.75 38.45 167.65 37.58Q165.55 36.70 164.28 35.18Q163.00 33.65 163.00 31.30Q163.00 27.70 165.68 25.75Q168.35 23.80 172.70 23.80Q176.85 23.80 179.55 25.65Q182.25 27.50 183.05 30.60L177.75 32.20Q177.35 30.10 176.00 29.23Q174.65 28.35 172.70 28.35Q170.70 28.35 169.63 29.05Q168.55 29.75 168.55 31.05Q168.55 32.35 169.65 33Q170.75 33.65 172.60 33.95L174.15 34.25Q176.90 34.75 179.13 35.55Q181.35 36.35 182.65 37.85Q183.95 39.35 183.95 41.90Q183.95 45.75 181.18 47.83Q178.40 49.90 173.70 49.90ZM199.95 49.90Q195.15 49.90 192.05 47.80Q188.95 45.70 188.30 41.65L193.60 40.30Q193.95 42.20 194.85 43.30Q195.75 44.40 197.08 44.85Q198.40 45.30 199.95 45.30Q202.30 45.30 203.48 44.45Q204.65 43.60 204.65 42.30Q204.65 40.95 203.53 40.30Q202.40 39.65 200.10 39.20L198.55 38.95Q196.00 38.45 193.90 37.58Q191.80 36.70 190.53 35.18Q189.25 33.65 189.25 31.30Q189.25 27.70 191.93 25.75Q194.60 23.80 198.95 23.80Q203.10 23.80 205.80 25.65Q208.50 27.50 209.30 30.60L204.00 32.20Q203.60 30.10 202.25 29.23Q200.90 28.35 198.95 28.35Q196.95 28.35 195.88 29.05Q194.80 29.75 194.80 31.05Q194.80 32.35 195.90 33Q197.00 33.65 198.85 33.95L200.40 34.25Q203.15 34.75 205.38 35.55Q207.60 36.35 208.90 37.85Q210.20 39.35 210.20 41.90Q210.20 45.75 207.43 47.83Q204.65 49.90 199.95 49.90ZM216.00 49.20L216.00 24.50L221.75 24.50L221.75 49.20L216.00 49.20M218.85 21.35Q217.30 21.35 216.18 20.33Q215.05 19.30 215.05 17.60Q215.05 15.90 216.18 14.88Q217.30 13.85 218.85 13.85Q220.50 13.85 221.58 14.88Q222.65 15.90 222.65 17.60Q222.65 19.30 221.58 20.33Q220.50 21.35 218.85 21.35ZM239.25 49.90Q234.45 49.90 231.35 47.80Q228.25 45.70 227.60 41.65L232.90 40.30Q233.25 42.20 234.15 43.30Q235.05 44.40 236.38 44.85Q237.70 45.30 239.25 45.30Q241.60 45.30 242.78 44.45Q243.95 43.60 243.95 42.30Q243.95 40.95 242.83 40.30Q241.70 39.65 239.40 39.20L237.85 38.95Q235.30 38.45 233.20 37.58Q231.10 36.70 229.83 35.18Q228.55 33.65 228.55 31.30Q228.55 27.70 231.23 25.75Q233.90 23.80 238.25 23.80Q242.40 23.80 245.10 25.65Q247.80 27.50 248.60 30.60L243.30 32.20Q242.90 30.10 241.55 29.23Q240.20 28.35 238.25 28.35Q236.25 28.35 235.18 29.05Q234.10 29.75 234.10 31.05Q234.10 32.35 235.20 33Q236.30 33.65 238.15 33.95L239.70 34.25Q242.45 34.75 244.68 35.55Q246.90 36.35 248.20 37.85Q249.50 39.35 249.50 41.90Q249.50 45.75 246.73 47.83Q243.95 49.90 239.25 49.90ZM264.20 49.20Q261.80 49.20 260.38 47.78Q258.95 46.35 258.95 43.90L258.95 29.25L252.50 29.25L252.50 24.50L258.95 24.50L258.95 16.55L264.70 16.55L264.70 24.50L271.80 24.50L271.80 29.25L264.70 29.25L264.70 42.95Q264.70 44.45 266.10 44.45L271.05 44.45L271.05 49.20L264.20 49.20ZM285.25 49.90Q282.65 49.90 280.55 48.98Q278.45 48.05 277.23 46.30Q276.00 44.55 276.00 42Q276.00 39.50 277.23 37.80Q278.45 36.10 280.60 35.23Q282.75 34.35 285.50 34.35L292.65 34.35L292.65 32.85Q292.65 30.90 291.45 29.68Q290.25 28.45 287.70 28.45Q285.20 28.45 283.93 29.63Q282.65 30.80 282.25 32.65L276.95 30.90Q277.55 28.95 278.88 27.35Q280.20 25.75 282.40 24.78Q284.60 23.80 287.80 23.80Q292.65 23.80 295.43 26.23Q298.20 28.65 298.20 33.25L298.20 42.95Q298.20 44.45 299.60 44.45L301.70 44.45L301.70 49.20L297.65 49.20Q295.85 49.20 294.70 48.30Q293.55 47.40 293.55 45.85L293.55 45.75L292.70 45.75Q292.40 46.45 291.65 47.45Q290.90 48.45 289.38 49.18Q287.85 49.90 285.25 49.90M286.20 45.20Q289.05 45.20 290.85 43.58Q292.65 41.95 292.65 39.20L292.65 38.70L285.85 38.70Q284.00 38.70 282.85 39.50Q281.70 40.30 281.70 41.85Q281.70 43.35 282.90 44.28Q284.10 45.20 286.20 45.20ZM306.45 49.20L306.45 24.50L312.10 24.50L312.10 27.95L312.95 27.95Q313.60 26.55 315.30 25.30Q317.00 24.05 320.45 24.05Q323.30 24.05 325.50 25.35Q327.70 26.65 328.93 28.95Q330.15 31.25 330.15 34.40L330.15 49.20L324.40 49.20L324.40 34.85Q324.40 31.85 322.93 30.38Q321.45 28.90 318.75 28.90Q315.70 28.90 313.95 30.93Q312.20 32.95 312.20 36.70L312.20 49.20L306.45 49.20ZM345.90 49.20Q343.50 49.20 342.08 47.78Q340.65 46.35 340.65 43.90L340.65 29.25L334.20 29.25L334.20 24.50L340.65 24.50L340.65 16.55L346.40 16.55L346.40 24.50L353.50 24.50L353.50 29.25L346.40 29.25L346.40 42.95Q346.40 44.45 347.80 44.45L352.75 44.45L352.75 49.20L345.90 49.20ZM376.40 49.20L376.40 29.25L369.80 29.25L369.80 24.50L376.40 24.50L376.40 19.50Q376.40 17.05 377.83 15.63Q379.25 14.20 381.60 14.20L388.00 14.20L388.00 18.95L383.50 18.95Q382.10 18.95 382.10 20.45L382.10 24.50L388.90 24.50L388.90 29.25L382.10 29.25L382.10 49.20L376.40 49.20ZM404.75 49.90Q401.05 49.90 398.13 48.38Q395.20 46.85 393.53 44.03Q391.85 41.20 391.85 37.25L391.85 36.45Q391.85 32.50 393.53 29.65Q395.20 26.80 398.13 25.30Q401.05 23.80 404.75 23.80Q408.45 23.80 411.35 25.30Q414.25 26.80 415.93 29.65Q417.60 32.50 417.60 36.45L417.60 37.25Q417.60 41.20 415.93 44.03Q414.25 46.85 411.35 48.38Q408.45 49.90 404.75 49.90M404.75 44.80Q407.90 44.80 409.90 42.78Q411.90 40.75 411.90 37.10L411.90 36.60Q411.90 32.95 409.90 30.93Q407.90 28.90 404.75 28.90Q401.60 28.90 399.60 30.93Q397.60 32.95 397.60 36.60L397.60 37.10Q397.60 40.75 399.60 42.78Q401.60 44.80 404.75 44.80ZM423.70 49.20L423.70 24.50L429.35 24.50L429.35 27.35L430.20 27.35Q430.75 25.80 432.05 25.10Q433.35 24.40 435.15 24.40L438.15 24.40L438.15 29.50L435.05 29.50Q432.55 29.50 431.00 30.83Q429.45 32.15 429.45 34.90L429.45 49.20L423.70 49.20ZM458.50 49.20L453.65 14.20L459.60 14.20L463.40 45.05L464.25 45.05L469.15 14.20L479.60 14.20L484.50 45.05L485.35 45.05L489.10 14.20L495.10 14.20L490.20 49.20L479.75 49.20L474.80 17.75L473.95 17.75L468.95 49.20L458.50 49.20ZM500.30 49.20L500.30 24.50L506.05 24.50L506.05 49.20L500.30 49.20M503.15 21.35Q501.60 21.35 500.48 20.33Q499.35 19.30 499.35 17.60Q499.35 15.90 500.48 14.88Q501.60 13.85 503.15 13.85Q504.80 13.85 505.88 14.88Q506.95 15.90 506.95 17.60Q506.95 19.30 505.88 20.33Q504.80 21.35 503.15 21.35ZM513.35 49.20L513.35 14.20L519.10 14.20L519.10 49.20L513.35 49.20ZM536.50 49.90Q533.50 49.90 530.90 48.43Q528.30 46.95 526.75 44.10Q525.20 41.25 525.20 37.25L525.20 36.45Q525.20 32.45 526.75 29.60Q528.30 26.75 530.88 25.28Q533.45 23.80 536.50 23.80Q538.80 23.80 540.40 24.35Q542.00 24.90 542.98 25.75Q543.95 26.60 544.50 27.60L545.35 27.60L545.35 14.20L551.05 14.20L551.05 49.20L545.45 49.20L545.45 45.95L544.60 45.95Q543.70 47.45 541.85 48.68Q540.00 49.90 536.50 49.90M538.20 44.90Q541.30 44.90 543.35 42.88Q545.40 40.85 545.40 37.10L545.40 36.60Q545.40 32.80 543.38 30.80Q541.35 28.80 538.20 28.80Q535.10 28.80 533.03 30.80Q530.95 32.80 530.95 36.60L530.95 37.10Q530.95 40.85 533.03 42.88Q535.10 44.90 538.20 44.90ZM570.90 49.20L570.90 14.20L585.85 14.20Q589.15 14.20 591.60 15.35Q594.05 16.50 595.43 18.58Q596.80 20.65 596.80 23.55L596.80 24.10Q596.80 27.35 595.25 29.30Q593.70 31.25 591.50 32.15L591.50 32.95Q593.45 33.05 594.58 34.30Q595.70 35.55 595.70 37.65L595.70 49.20L589.70 49.20L589.70 38.50Q589.70 37.25 589.03 36.48Q588.35 35.70 586.85 35.70L576.95 35.70L576.95 49.20L570.90 49.20M576.95 30.25L585.25 30.25Q587.85 30.25 589.33 28.88Q590.80 27.50 590.80 25.20L590.80 24.75Q590.80 22.40 589.35 21.03Q587.90 19.65 585.25 19.65L576.95 19.65L576.95 30.25ZM602.70 49.20L602.70 24.50L608.45 24.50L608.45 49.20L602.70 49.20M605.55 21.35Q604.00 21.35 602.88 20.33Q601.75 19.30 601.75 17.60Q601.75 15.90 602.88 14.88Q604.00 13.85 605.55 13.85Q607.20 13.85 608.28 14.88Q609.35 15.90 609.35 17.60Q609.35 19.30 608.28 20.33Q607.20 21.35 605.55 21.35ZM620.05 49.20L620.05 29.25L613.45 29.25L613.45 24.50L620.05 24.50L620.05 19.50Q620.05 17.05 621.48 15.63Q622.90 14.20 625.25 14.20L631.65 14.20L631.65 18.95L627.15 18.95Q625.75 18.95 625.75 20.45L625.75 24.50L632.55 24.50L632.55 29.25L625.75 29.25L625.75 49.20L620.05 49.20ZM641.40 49.20Q639.00 49.20 637.58 47.78Q636.15 46.35 636.15 43.90L636.15 29.25L629.70 29.25L629.70 24.50L636.15 24.50L636.15 16.55L641.90 16.55L641.90 24.50L649.00 24.50L649.00 29.25L641.90 29.25L641.90 42.95Q641.90 44.45 643.30 44.45L648.25 44.45L648.25 49.20L641.40 49.20Z"/></g></g></svg>