<svg xmlns="http://www.w3.org/2000/svg" viewBox="0 13.850000381469727 466.79998779296875 36.05000305175781" data-asc="0.984" width="466.79998779296875" height="36.05000305175781"><defs/><g fill="#000000"><g transform="translate(0, 0)"><path d="M0 49.20L0 43.90L4.70 43.90L4.70 19.50L0 19.50L0 14.20L14.25 14.20Q21.25 14.20 24.95 17.75Q28.65 21.30 28.65 28.40L28.65 35Q28.65 42.10 24.95 45.65Q21.25 49.20 14.25 49.20L0 49.20M10.70 43.75L14.30 43.75Q18.55 43.75 20.60 41.55Q22.65 39.35 22.65 35.20L22.65 28.25Q22.65 24 20.60 21.83Q18.55 19.65 14.30 19.65L10.70 19.65L10.70 43.75ZM34.60 49.20L34.60 24.50L40.25 24.50L40.25 27.35L41.10 27.35Q41.65 25.80 42.95 25.10Q44.25 24.40 46.05 24.40L49.05 24.40L49.05 29.50L45.95 29.50Q43.45 29.50 41.90 30.83Q40.35 32.15 40.35 34.90L40.35 49.20L34.60 49.20ZM61.15 49.90Q58.55 49.90 56.45 48.98Q54.35 48.05 53.13 46.30Q51.90 44.55 51.90 42Q51.90 39.50 53.13 37.80Q54.35 36.10 56.50 35.23Q58.65 34.35 61.40 34.35L68.55 34.35L68.55 32.85Q68.55 30.90 67.35 29.68Q66.15 28.45 63.60 28.45Q61.10 28.45 59.83 29.63Q58.55 30.80 58.15 32.65L52.85 30.90Q53.45 28.95 54.78 27.35Q56.10 25.75 58.30 24.78Q60.50 23.80 63.70 23.80Q68.55 23.80 71.33 26.23Q74.10 28.65 74.10 33.25L74.10 42.95Q74.10 44.45 75.50 44.45L77.60 44.45L77.60 49.20L73.55 49.20Q71.75 49.20 70.60 48.30Q69.45 47.40 69.45 45.85L69.45 45.75L68.60 45.75Q68.30 46.45 67.55 47.45Q66.80 48.45 65.28 49.18Q63.75 49.90 61.15 49.90M62.10 45.20Q64.95 45.20 66.75 43.58Q68.55 41.95 68.55 39.20L68.55 38.70L61.75 38.70Q59.90 38.70 58.75 39.50Q57.60 40.30 57.60 41.85Q57.60 43.35 58.80 44.28Q60 45.20 62.10 45.20ZM84.90 49.20L84.90 29.25L78.30 29.25L78.30 24.50L84.90 24.50L84.90 19.50Q84.90 17.05 86.33 15.63Q87.75 14.20 90.10 14.20L96.50 14.20L96.50 18.95L92 18.95Q90.60 18.95 90.60 20.45L90.60 24.50L97.40 24.50L97.40 29.25L90.60 29.25L90.60 49.20L84.90 49.20ZM106.25 49.20Q103.85 49.20 102.43 47.78Q101.00 46.35 101.00 43.90L101.00 29.25L94.55 29.25L94.55 24.50L101.00 24.50L101.00 16.55L106.75 16.55L106.75 24.50L113.85 24.50L113.85 29.25L106.75 29.25L106.75 42.95Q106.75 44.45 108.15 44.45L113.10 44.45L113.10 49.20L106.25 49.20ZM132.25 49.20L132.25 14.20L146.40 14.20Q149.70 14.20 152.20 15.50Q154.70 16.80 156.15 19.18Q157.60 21.55 157.60 24.80L157.60 25.50Q157.60 28.70 156.13 31.10Q154.65 33.50 152.13 34.80Q149.60 36.10 146.40 36.10L138.30 36.10L138.30 49.20L132.25 49.20M138.30 30.65L145.80 30.65Q148.40 30.65 149.98 29.25Q151.55 27.85 151.55 25.40L151.55 24.90Q151.55 22.45 150 21.05Q148.45 19.65 145.80 19.65L138.30 19.65L138.30 30.65ZM162.60 49.20L162.60 24.50L168.35 24.50L168.35 49.20L162.60 49.20M165.45 21.35Q163.90 21.35 162.78 20.33Q161.65 19.30 161.65 17.60Q161.65 15.90 162.78 14.88Q163.90 13.85 165.45 13.85Q167.10 13.85 168.18 14.88Q169.25 15.90 169.25 17.60Q169.25 19.30 168.18 20.33Q167.10 21.35 165.45 21.35ZM187.20 49.90Q183.60 49.90 180.70 48.40Q177.80 46.90 176.13 44.05Q174.45 41.20 174.45 37.20L174.45 36.50Q174.45 32.50 176.13 29.65Q177.80 26.80 180.70 25.30Q183.60 23.80 187.20 23.80Q190.75 23.80 193.28 25.05Q195.80 26.30 197.35 28.48Q198.90 30.65 199.35 33.35L193.80 34.50Q193.60 32.95 192.85 31.68Q192.10 30.40 190.73 29.65Q189.35 28.90 187.35 28.90Q185.30 28.90 183.68 29.78Q182.05 30.65 181.13 32.40Q180.20 34.15 180.20 36.60L180.20 37.10Q180.20 39.55 181.13 41.28Q182.05 43 183.68 43.90Q185.30 44.80 187.35 44.80Q190.40 44.80 191.98 43.23Q193.55 41.65 193.95 39.15L199.50 40.45Q198.90 43.05 197.35 45.20Q195.80 47.35 193.28 48.63Q190.75 49.90 187.20 49.90ZM205.10 49.20L205.10 14.20L210.85 14.20L210.85 33.85L211.70 33.85L220.60 24.50L228.15 24.50L216.20 36.45L228.55 49.20L221.10 49.20L211.70 39.15L210.85 39.15L210.85 49.20L205.10 49.20ZM242.50 49.20L252.10 14.20L262.55 14.20L272.15 49.20L265.95 49.20L263.85 41.20L250.80 41.20L248.70 49.20L242.50 49.20M252.20 35.70L262.45 35.70L257.75 17.95L256.90 17.95L252.20 35.70ZM287.00 49.90Q282.20 49.90 279.10 47.80Q276.00 45.70 275.35 41.65L280.65 40.30Q281.00 42.20 281.90 43.30Q282.80 44.40 284.13 44.85Q285.45 45.30 287.00 45.30Q289.35 45.30 290.53 44.45Q291.70 43.60 291.70 42.30Q291.70 40.95 290.58 40.30Q289.45 39.65 287.15 39.20L285.60 38.95Q283.05 38.45 280.95 37.58Q278.85 36.70 277.58 35.18Q276.30 33.65 276.30 31.30Q276.30 27.70 278.98 25.75Q281.65 23.80 286.00 23.80Q290.15 23.80 292.85 25.65Q295.55 27.50 296.35 30.60L291.05 32.20Q290.65 30.10 289.30 29.23Q287.95 28.35 286.00 28.35Q284.00 28.35 282.93 29.05Q281.85 29.75 281.85 31.05Q281.85 32.35 282.95 33Q284.05 33.65 285.90 33.95L287.45 34.25Q290.20 34.75 292.43 35.55Q294.65 36.35 295.95 37.85Q297.25 39.35 297.25 41.90Q297.25 45.75 294.48 47.83Q291.70 49.90 287.00 49.90ZM313.25 49.90Q308.45 49.90 305.35 47.80Q302.25 45.70 301.60 41.65L306.90 40.30Q307.25 42.20 308.15 43.30Q309.05 44.40 310.38 44.85Q311.70 45.30 313.25 45.30Q315.60 45.30 316.78 44.45Q317.95 43.60 317.95 42.30Q317.95 40.95 316.83 40.30Q315.70 39.65 313.40 39.20L311.85 38.95Q309.30 38.45 307.20 37.58Q305.10 36.70 303.83 35.18Q302.55 33.65 302.55 31.30Q302.55 27.70 305.23 25.75Q307.90 23.80 312.25 23.80Q316.40 23.80 319.10 25.65Q321.80 27.50 322.60 30.60L317.30 32.20Q316.90 30.10 315.55 29.23Q314.20 28.35 312.25 28.35Q310.25 28.35 309.18 29.05Q308.10 29.75 308.10 31.05Q308.10 32.35 309.20 33Q310.30 33.65 312.15 33.95L313.70 34.25Q316.45 34.75 318.68 35.55Q320.90 36.35 322.20 37.85Q323.50 39.35 323.50 41.90Q323.50 45.75 320.73 47.83Q317.95 49.90 313.25 49.90ZM329.30 49.20L329.30 24.50L335.05 24.50L335.05 49.20L329.30 49.20M332.15 21.35Q330.60 21.35 329.48 20.33Q328.35 19.30 328.35 17.60Q328.35 15.90 329.48 14.88Q330.60 13.85 332.15 13.85Q333.80 13.85 334.88 14.88Q335.95 15.90 335.95 17.60Q335.95 19.30 334.88 20.33Q333.80 21.35 332.15 21.35ZM352.55 49.90Q347.75 49.90 344.65 47.80Q341.55 45.70 340.90 41.65L346.20 40.30Q346.55 42.20 347.45 43.30Q348.35 44.40 349.68 44.85Q351.00 45.30 352.55 45.30Q354.90 45.30 356.08 44.45Q357.25 43.60 357.25 42.30Q357.25 40.95 356.13 40.30Q355.00 39.65 352.70 39.20L351.15 38.95Q348.60 38.45 346.50 37.58Q344.40 36.70 343.13 35.18Q341.85 33.65 341.85 31.30Q341.85 27.70 344.53 25.75Q347.20 23.80 351.55 23.80Q355.70 23.80 358.40 25.65Q361.10 27.50 361.90 30.60L356.60 32.20Q356.20 30.10 354.85 29.23Q353.50 28.35 351.55 28.35Q349.55 28.35 348.48 29.05Q347.40 29.75 347.40 31.05Q347.40 32.35 348.50 33Q349.60 33.65 351.45 33.95L353.00 34.25Q355.75 34.75 357.98 35.55Q360.20 36.35 361.50 37.85Q362.80 39.35 362.80 41.90Q362.80 45.75 360.03 47.83Q357.25 49.90 352.55 49.90ZM377.50 49.20Q375.10 49.20 373.68 47.78Q372.25 46.35 372.25 43.90L372.25 29.25L365.80 29.25L365.80 24.50L372.25 24.50L372.25 16.55L378.00 16.55L378.00 24.50L385.10 24.50L385.10 29.25L378.00 29.25L378.00 42.95Q378.00 44.45 379.40 44.45L384.35 44.45L384.35 49.20L377.50 49.20ZM398.55 49.90Q395.95 49.90 393.85 48.98Q391.75 48.05 390.53 46.30Q389.30 44.55 389.30 42Q389.30 39.50 390.53 37.80Q391.75 36.10 393.90 35.23Q396.05 34.35 398.80 34.35L405.95 34.35L405.95 32.85Q405.95 30.90 404.75 29.68Q403.55 28.45 401.00 28.45Q398.50 28.45 397.23 29.63Q395.95 30.80 395.55 32.65L390.25 30.90Q390.85 28.95 392.18 27.35Q393.50 25.75 395.70 24.78Q397.90 23.80 401.10 23.80Q405.95 23.80 408.73 26.23Q411.50 28.65 411.50 33.25L411.50 42.95Q411.50 44.45 412.90 44.45L415.00 44.45L415.00 49.20L410.95 49.20Q409.15 49.20 408.00 48.30Q406.85 47.40 406.85 45.85L406.85 45.75L406.00 45.75Q405.70 46.45 404.95 47.45Q404.20 48.45 402.68 49.18Q401.15 49.90 398.55 49.90M399.50 45.20Q402.35 45.20 404.15 43.58Q405.95 41.95 405.95 39.20L405.95 38.70L399.15 38.70Q397.30 38.70 396.15 39.50Q395.00 40.30 395.00 41.85Q395.00 43.35 396.20 44.28Q397.40 45.20 399.50 45.20ZM419.75 49.20L419.75 24.50L425.40 24.50L425.40 27.95L426.25 27.95Q426.90 26.55 428.60 25.30Q430.30 24.05 433.75 24.05Q436.60 24.05 438.80 25.35Q441.00 26.65 442.23 28.95Q443.45 31.25 443.45 34.40L443.45 49.20L437.70 49.20L437.70 34.85Q437.70 31.85 436.23 30.38Q434.75 28.90 432.05 28.90Q429.00 28.90 427.25 30.93Q425.50 32.95 425.50 36.70L425.50 49.20L419.75 49.20ZM459.20 49.20Q456.80 49.20 455.38 47.78Q453.95 46.35 453.95 43.90L453.95 29.25L447.50 29.25L447.50 24.50L453.95 24.50L453.95 16.55L459.70 16.55L459.70 24.50L466.80 24.50L466.80 29.25L459.70 29.25L459.70 42.95Q459.70 44.45 461.10 44.45L466.05 44.45L466.05 49.20L459.20 49.20Z"/></g></g></svg>